<?xml version="1.0" standalone="no"?>
<!DOCTYPE svg PUBLIC "-//W3C//DTD SVG 20010904//EN"
 "http://www.w3.org/TR/2001/REC-SVG-20010904/DTD/svg10.dtd">
<svg version="1.0" xmlns="http://www.w3.org/2000/svg"
 width="50.000000pt" height="50.000000pt" viewBox="0 0 50.000000 50.000000"
 preserveAspectRatio="xMidYMid meet">

<g transform="translate(0.000000,50.000000) scale(0.100000,-0.100000)"
fill="#000000" stroke="none">
<path d="M171 479 c-149 -45 -215 -208 -132 -325 17 -25 31 -47 31 -50 0 -4
-16 -21 -36 -39 -20 -19 -33 -38 -29 -44 10 -17 74 -12 135 9 30 11 82 19 116
20 78 0 156 38 201 97 105 140 -1 328 -191 339 -33 2 -76 -1 -95 -7z m204 -43
c112 -66 136 -198 52 -293 -43 -49 -99 -73 -173 -73 -34 0 -86 -9 -119 -20
-32 -11 -69 -20 -82 -20 -25 0 -25 0 6 31 35 34 39 60 14 80 -24 21 -53 89
-53 129 0 78 60 154 147 186 58 22 152 12 208 -20z"/>
<path d="M230 355 c0 -8 9 -15 20 -15 11 0 20 7 20 15 0 8 -9 15 -20 15 -11 0
-20 -7 -20 -15z"/>
<path d="M234 287 c-3 -8 -4 -39 -2 -68 2 -42 7 -55 21 -57 16 -3 18 3 15 64
-2 43 -8 69 -15 72 -7 2 -15 -3 -19 -11z"/>
</g>
</svg>
