<?xml version="1.0" standalone="no"?>
<!DOCTYPE svg PUBLIC "-//W3C//DTD SVG 20010904//EN"
 "http://www.w3.org/TR/2001/REC-SVG-20010904/DTD/svg10.dtd">
<svg version="1.0" xmlns="http://www.w3.org/2000/svg"
 width="50.000000pt" height="50.000000pt" viewBox="0 0 50.000000 50.000000"
 preserveAspectRatio="xMidYMid meet">

<g transform="translate(0.000000,50.000000) scale(0.100000,-0.100000)"
fill="#000000" stroke="none">
<path d="M355 418 c-43 -65 -52 -73 -74 -59 -11 7 -8 17 15 50 16 22 37 41 47
41 10 0 15 5 12 10 -14 23 -43 6 -85 -52 -25 -33 -87 -99 -137 -146 -71 -65
-94 -94 -99 -119 -8 -44 12 -90 47 -108 60 -32 100 -15 164 70 l48 64 28 -20
c16 -11 31 -24 34 -29 11 -18 25 -10 25 15 0 18 7 26 25 31 33 8 32 17 -11 49
l-36 27 51 52 c39 40 51 59 51 82 0 30 -35 95 -55 100 -5 2 -28 -24 -50 -58z
m81 -25 c6 -31 2 -39 -36 -78 l-43 -44 -16 32 c-17 32 -16 32 23 89 44 64 60
64 72 1z m-142 -64 c36 -29 49 -64 33 -89 -14 -24 -27 -26 -27 -4 0 9 -16 32
-35 51 -28 28 -33 38 -24 49 15 19 22 18 53 -7z m-69 -35 c13 -5 11 -11 -16
-33 -31 -27 -32 -27 -15 -58 25 -49 21 -109 -9 -138 -72 -73 -178 28 -114 109
24 30 45 33 71 9 37 -33 10 -114 -27 -83 -14 12 -13 15 5 35 27 29 13 41 -17
13 -27 -26 -28 -35 -6 -60 22 -24 49 -23 67 4 25 35 20 77 -13 107 l-28 26 41
37 c48 43 40 40 61 32z m43 -36 c25 -32 24 -59 -4 -95 l-27 -36 -14 53 c-12
47 -12 55 3 72 20 21 28 22 42 6z m122 -69 c0 -5 -7 -9 -15 -9 -8 0 -15 -7
-15 -15 0 -19 -9 -19 -31 1 -16 15 -17 18 -3 40 15 22 17 22 40 7 13 -8 24
-19 24 -24z"/>
</g>
</svg>
