<?xml version="1.0" standalone="no"?>
<!DOCTYPE svg PUBLIC "-//W3C//DTD SVG 20010904//EN"
 "http://www.w3.org/TR/2001/REC-SVG-20010904/DTD/svg10.dtd">
<svg version="1.0" xmlns="http://www.w3.org/2000/svg"
 width="64.000000pt" height="64.000000pt" viewBox="0 0 64.000000 64.000000"
 preserveAspectRatio="xMidYMid meet">

<g transform="translate(0.000000,64.000000) scale(0.100000,-0.100000)"
fill="#000000" stroke="none">
<path d="M335 596 c-55 -25 -84 -59 -92 -110 -7 -45 22 -104 65 -129 32 -19
34 -23 28 -59 -3 -21 -3 -38 1 -38 5 0 26 14 47 30 22 17 51 30 65 30 40 0
125 44 145 75 48 74 23 153 -64 198 -68 34 -127 35 -195 3z m194 -21 c37 -19
71 -69 71 -105 0 -35 -34 -86 -69 -104 -16 -9 -48 -18 -72 -22 -24 -4 -56 -16
-71 -26 l-28 -19 0 25 c0 18 -9 30 -30 41 -35 18 -70 69 -70 103 0 27 22 73
44 91 50 42 161 50 225 16z"/>
<path d="M320 510 c0 -6 43 -10 110 -10 67 0 110 4 110 10 0 6 -43 10 -110 10
-67 0 -110 -4 -110 -10z"/>
<path d="M320 470 c0 -6 43 -10 110 -10 67 0 110 4 110 10 0 6 -43 10 -110 10
-67 0 -110 -4 -110 -10z"/>
<path d="M320 430 c0 -6 43 -10 110 -10 67 0 110 4 110 10 0 6 -43 10 -110 10
-67 0 -110 -4 -110 -10z"/>
<path d="M119 405 c-56 -31 -63 -135 -13 -195 24 -28 24 -30 7 -36 -83 -27
-93 -38 -93 -108 l0 -46 150 0 150 0 0 46 c0 70 -10 81 -93 108 -17 6 -17 8 7
36 31 37 43 108 26 151 -22 52 -88 73 -141 44z m106 -30 c14 -13 25 -36 25
-50 0 -22 -3 -24 -19 -15 -11 5 -21 15 -23 22 -3 8 -13 5 -33 -10 -15 -12 -41
-22 -56 -22 -24 0 -29 4 -29 25 0 36 42 75 80 75 19 0 40 -9 55 -25z m15 -113
c0 -25 -41 -62 -69 -62 -29 0 -71 36 -71 62 0 13 8 18 28 18 16 0 37 6 47 14
16 12 22 12 42 -1 13 -9 23 -22 23 -31z m-52 -94 c-3 -7 -11 -13 -18 -13 -7 0
-15 6 -17 13 -3 7 4 12 17 12 13 0 20 -5 18 -12z m-33 -46 c12 -27 21 -28 28
-2 3 11 12 23 21 26 31 12 30 -7 -2 -38 l-32 -32 -30 29 c-16 16 -30 33 -30
38 0 17 35 1 45 -21z m-31 -29 l46 -48 46 48 c25 26 49 47 54 47 15 0 30 -36
30 -69 l0 -31 -130 0 -130 0 0 31 c0 33 15 69 30 69 5 0 29 -21 54 -47z"/>
<path d="M130 252 c0 -30 50 -41 70 -17 17 20 5 32 -15 15 -12 -10 -19 -10
-27 -2 -14 14 -28 16 -28 4z"/>
</g>
</svg>
