<?xml version="1.0" standalone="no"?>
<!DOCTYPE svg PUBLIC "-//W3C//DTD SVG 20010904//EN"
 "http://www.w3.org/TR/2001/REC-SVG-20010904/DTD/svg10.dtd">
<svg version="1.0" xmlns="http://www.w3.org/2000/svg"
 width="50.000000pt" height="50.000000pt" viewBox="0 0 50.000000 50.000000"
 preserveAspectRatio="xMidYMid meet">

<g transform="translate(0.000000,50.000000) scale(0.100000,-0.100000)"
fill="#000000" stroke="none">
<path d="M56 444 c-24 -23 -24 -365 0 -388 23 -24 365 -24 388 0 24 23 24 365
0 388 -23 24 -365 24 -388 0z m379 -194 l0 -185 -185 0 -185 0 -3 175 c-1 96
0 180 3 187 3 11 44 13 187 11 l183 -3 0 -185z"/>
<path d="M185 396 c-101 -44 -125 -178 -46 -257 65 -65 157 -65 222 0 124 124
-15 327 -176 257z m133 -26 c94 -57 94 -183 0 -240 -64 -39 -146 -16 -188 52
-71 117 71 259 188 188z"/>
<path d="M230 280 c0 -63 2 -70 20 -70 18 0 20 7 20 70 0 63 -2 70 -20 70 -18
0 -20 -7 -20 -70z"/>
<path d="M230 170 c0 -13 7 -20 20 -20 13 0 20 7 20 20 0 13 -7 20 -20 20 -13
0 -20 -7 -20 -20z"/>
</g>
</svg>
