<?xml version="1.0" standalone="no"?>
<!DOCTYPE svg PUBLIC "-//W3C//DTD SVG 20010904//EN"
 "http://www.w3.org/TR/2001/REC-SVG-20010904/DTD/svg10.dtd">
<svg version="1.0" xmlns="http://www.w3.org/2000/svg"
 width="32.000000pt" height="32.000000pt" viewBox="0 0 32.000000 32.000000"
 preserveAspectRatio="xMidYMid meet">

<g transform="translate(0.000000,32.000000) scale(0.100000,-0.100000)"
fill="#000000" stroke="none">
<path d="M0 192 l0 -128 65 -32 65 -32 0 35 c0 33 2 35 35 35 l35 0 -2 48 -1
47 -4 -42 c-4 -40 -6 -43 -34 -43 l-29 0 0 95 c0 52 -2 95 -4 95 -2 0 -13 3
-23 6 -17 5 -17 5 0 -6 15 -9 17 -28 17 -130 0 -66 -2 -120 -5 -120 -3 0 -28
11 -55 25 l-50 25 0 116 c0 126 -4 120 55 99 13 -4 12 -1 -5 9 -24 15 -21 15
52 16 l77 0 4 -47 3 -48 2 53 2 52 -100 0 -100 0 0 -128z"/>
<path d="M275 230 l28 -29 -79 -4 -79 -3 79 -2 80 -2 -35 -37 -34 -38 43 40
42 39 -32 33 c-18 18 -34 33 -37 33 -3 0 8 -13 24 -30z"/>
</g>
</svg>
